<svg width="1200" height="800" viewBox="0 0 1200 800" fill="none" xmlns="http://www.w3.org/2000/svg">
<rect width="1200" height="800" fill="white"/>
<g clip-path="url(#clip0_335_2)">
<path d="M636.492 221H797.973C863.453 221 916.535 274.081 916.535 339.561V493.564H850.21V339.561C850.21 337.983 850.147 336.417 850.026 334.864L688.544 493.539C689.088 493.556 689.635 493.564 690.183 493.564H850.21V556.207H690.183C624.703 556.207 570.165 502.606 570.165 437.126V283.532H636.492V437.126C636.492 440.084 636.721 443.006 637.165 445.872L802.2 283.707C800.809 283.591 799.4 283.532 797.973 283.532H636.492V221Z" fill="black"/>
<path d="M473.381 544.67L240 283.504H333.892L470.912 436.835V283.504H540.922V518.889C540.922 554.414 497.054 571.159 473.381 544.67Z" fill="black"/>
</g>
<defs>
<clipPath id="clip0_335_2">
<rect width="678" height="339" fill="white" transform="translate(240 221)"/>
</clipPath>
</defs>
</svg>
